<svg width="22" height="37" viewBox="0 0 22 37" fill="none" xmlns="http://www.w3.org/2000/svg">
<path d="M0.950436 0.954722C0.64915 1.25539 0.41012 1.61253 0.24703 2.00569C0.0839405 2.39886 -7.62939e-06 2.82032 -7.62939e-06 3.24597C-7.62939e-06 3.67162 0.0839405 4.09309 0.24703 4.48625C0.41012 4.87941 0.64915 5.23655 0.950436 5.53722L13.5604 18.1472L0.950436 30.7572C0.342759 31.3649 0.00136852 32.1891 0.00136852 33.0485C0.00136852 33.9079 0.342759 34.7321 0.950436 35.3397C1.55811 35.9474 2.3823 36.2888 3.24169 36.2888C4.10107 36.2888 4.92526 35.9474 5.53294 35.3397L20.4504 20.4222C20.7517 20.1216 20.9908 19.7644 21.1538 19.3713C21.3169 18.9781 21.4009 18.5566 21.4009 18.131C21.4009 17.7053 21.3169 17.2839 21.1538 16.8907C20.9908 16.4975 20.7517 16.1404 20.4504 15.8397L5.53294 0.922221C4.29794 -0.312779 2.21794 -0.312778 0.950436 0.954722Z" fill="black"/>
</svg>
